<?xml version="1.0" standalone="no"?>
<!DOCTYPE svg PUBLIC "-//W3C//DTD SVG 20010904//EN"
 "http://www.w3.org/TR/2001/REC-SVG-20010904/DTD/svg10.dtd">
<svg version="1.0" xmlns="http://www.w3.org/2000/svg"
 width="256.000000pt" height="256.000000pt" viewBox="0 0 256.000000 256.000000"
 preserveAspectRatio="xMidYMid meet">

<g transform="translate(0.000000,256.000000) scale(0.100000,-0.100000)"
fill="#000000" stroke="none">
<path d="M1405 2150 c-22 -5 -134 -18 -250 -29 -498 -51 -739 -113 -927 -237
-125 -83 -203 -220 -179 -312 7 -24 22 -49 35 -57 48 -31 166 -27 166 6 0 6
-13 27 -30 46 -75 85 -7 174 200 263 62 26 279 85 286 77 1 -1 -52 -72 -118
-157 -115 -148 -123 -156 -177 -176 -232 -87 -391 -235 -391 -362 0 -49 17
-64 67 -60 l38 3 -3 48 c-6 85 58 161 189 222 29 13 54 23 56 21 1 -1 -15 -38
-37 -82 -49 -95 -80 -192 -80 -246 0 -62 24 -96 88 -126 52 -24 67 -27 182
-26 l125 1 -28 -30 c-43 -46 -61 -87 -61 -144 -1 -88 57 -127 189 -127 119 1
215 42 332 141 l64 54 71 -45 c39 -25 80 -46 91 -46 47 0 127 60 127 96 0 7
-43 34 -95 60 -56 28 -92 52 -88 58 4 6 78 99 165 207 169 210 178 227 133
269 l-25 23 23 11 c18 10 23 21 25 68 4 78 -21 107 -99 115 -114 11 -260 -65
-384 -200 -148 -162 -177 -320 -69 -372 40 -19 70 -19 123 0 l41 14 -29 -43
-30 -43 -53 13 c-29 8 -87 14 -130 14 l-78 0 10 26 c13 34 13 91 -1 99 -5 4
-31 -2 -57 -13 -123 -53 -324 -86 -381 -62 -25 10 -31 18 -31 44 0 44 65 174
139 277 l62 87 77 11 c42 7 140 17 217 23 77 6 146 16 154 22 20 16 59 80 67
110 8 32 23 32 -206 -3 -102 -16 -186 -28 -187 -27 -1 0 28 39 63 86 74 97 83
120 60 155 -9 13 -16 26 -16 28 0 5 191 25 404 41 168 13 170 14 193 42 24 30
53 105 53 136 0 20 -11 21 -75 8z m75 -615 c0 -30 -3 -35 -23 -35 -17 0 -28
-11 -44 -42 -35 -71 -78 -123 -152 -183 -51 -41 -80 -57 -103 -59 -28 -1 -34
3 -36 23 -9 60 131 254 225 312 78 48 133 42 133 -16z m-508 -600 c26 -3 50
-10 53 -15 8 -12 -107 -112 -167 -146 -67 -36 -163 -41 -197 -10 -47 43 -15
109 71 146 50 22 146 40 178 34 8 -1 36 -5 62 -9z"/>
<path d="M1957 1907 c-31 -52 -105 -161 -165 -243 -204 -280 -259 -378 -269
-479 -5 -48 -3 -56 20 -79 14 -14 37 -26 50 -26 50 0 128 34 186 81 60 48 71
51 71 16 0 -35 61 -84 115 -93 67 -10 167 11 240 49 81 42 298 256 293 290 -2
15 -11 23 -29 25 -21 2 -38 -11 -94 -73 -75 -84 -171 -157 -235 -180 -75 -27
-101 -18 -115 36 -6 23 -3 27 22 33 15 4 71 28 123 54 75 36 110 62 168 119
101 101 126 168 80 210 -32 28 -62 33 -127 22 -125 -23 -279 -129 -367 -252
-75 -105 -200 -217 -241 -217 -33 0 43 128 215 364 230 313 232 317 232 346 0
19 -11 37 -35 59 -59 51 -74 45 -138 -62z m383 -344 c0 -41 -176 -183 -259
-208 -23 -7 -22 -5 10 40 47 66 124 133 184 161 60 28 65 29 65 7z"/>
</g>
</svg>
